<!-- Generated by IcoMoon.io -->
<svg version="1.1" xmlns="http://www.w3.org/2000/svg" width="255" height="448" viewBox="0 0 255 448">
<title></title>
<g id="icomoon-ignore">
</g>
<path fill="#000" d="M244.5 296.25c0 51-36.5 91.25-89.5 100v43.75c0 4.5-3.5 8-8 8h-33.75c-4.25 0-8-3.5-8-8v-43.75c-58.5-8.25-90.5-43.25-91.75-44.75-2.5-3-2.75-7.25-0.5-10.25l25.75-33.75c1.25-1.75 3.5-2.75 5.75-3s4.5 0.5 6 2.25c0.5 0.25 35.5 33.75 79.75 33.75 24.5 0 51-13 51-41.25 0-24-29.5-35.75-63.25-49.25-45-17.75-101-40.25-101-103 0-46 36-84 88.25-94v-45c0-4.5 3.75-8 8-8h33.75c4.5 0 8 3.5 8 8v44c50.75 5.75 77.75 33.25 78.75 34.25 2.5 2.75 3 6.5 1.25 9.5l-20.25 36.5c-1.25 2.25-3.25 3.75-5.75 4-2.5 0.5-4.75-0.25-6.75-1.75-0.25-0.25-30.5-27-68-27-31.75 0-53.75 15.75-53.75 38.5 0 26.5 30.5 38.25 66 52 46 17.75 98 38 98 98.25z"></path>
</svg>
