<?xml version="1.0" encoding="UTF-8"?><svg id="Layer_1" xmlns="http://www.w3.org/2000/svg" viewBox="0 0 442.79 442.79"><defs><style>.cls-1{fill:#fff;}.cls-2{fill:#6adaab;}.cls-3{fill:#d5f0e9;}.cls-4{fill:none;stroke:#fff;stroke-linecap:round;stroke-miterlimit:10;stroke-width:9px;}</style></defs><polygon class="cls-3" points="329.11 295.02 329.11 317.23 59.48 317.23 59.48 166.76 95.21 166.78 95.23 142.43 35.14 142.4 35.14 142.44 35.13 142.44 35.13 158.03 35.12 166.75 35.13 166.75 35.13 340.12 35.14 340.12 35.14 341.59 329.11 341.59 329.11 341.59 353.46 341.59 353.46 295.02 329.11 295.02"/><rect class="cls-3" x="59.48" y="317.23" width="67.55" height="24.53"/><rect class="cls-3" x="13.45" y="295.73" width="67.55" height="24.53" transform="translate(355.21 260.78) rotate(90)"/><rect class="cls-3" x="13.45" y="228.18" width="67.55" height="24.53" transform="translate(287.67 193.23) rotate(90)"/><rect class="cls-3" x="126.72" y="317.23" width="67.55" height="24.53"/><rect class="cls-3" x="194.44" y="317.23" width="67.55" height="24.53"/><rect class="cls-3" x="261.98" y="317.23" width="67.55" height="24.53"/><rect class="cls-3" x="312.1" y="300.39" width="58.19" height="24.53" transform="translate(653.85 -28.54) rotate(90)"/><rect class="cls-3" x="89.5" y="90.1" width="318.34" height="199.18" transform="translate(497.34 379.39) rotate(-180)"/><rect class="cls-1" x="128.83" y="174.19" width="30.88" height="30.88" rx="13.48" ry="13.48" transform="translate(288.55 379.26) rotate(-180)"/><circle class="cls-1" cx="248.68" cy="190.35" r="49.58"/><rect class="cls-1" x="337.59" y="174.19" width="30.88" height="30.88" rx="13.48" ry="13.48" transform="translate(706.07 379.26) rotate(180)"/><circle class="cls-2" cx="369" cy="308.61" r="44.62"/><polyline class="cls-4" points="349.48 310.85 367.1 322.91 388.51 294.17"/></svg>