<?xml version="1.0" encoding="UTF-8"?>
<svg id="Layer_1" data-name="Layer 1" xmlns="http://www.w3.org/2000/svg" viewBox="0 0 128 128">
  <defs>
    <style>
      .cls-1 {
        fill: #fff;
      }

      .cls-1, .cls-2 {
        stroke-width: 0px;
      }

      .cls-2 {
        fill: #e3e5e9;
      }
    </style>
  </defs>
  <polygon class="cls-2" points="100.97 88.15 100.97 98.77 77.93 98.77 54.75 98.77 54.69 98.77 31.61 98.77 31.5 98.77 8.42 98.77 8.42 84.01 8.42 84.01 8.42 84.01 8.42 84.01 8.42 60.82 8.42 60.82 8.42 47.12 20.69 47.13 20.69 38.77 .06 38.76 .06 38.77 .06 38.77 .06 44.12 .06 47.12 .06 47.12 .06 60.82 0 60.82 0 84.01 .06 84.01 .06 84.01 0 84.01 0 107.19 8.42 107.19 8.42 107.19 31.5 107.19 31.61 107.19 54.69 107.19 54.69 107.13 54.75 107.13 54.75 107.19 77.93 107.19 77.93 107.13 100.97 107.13 100.97 107.14 109.33 107.14 109.33 88.15 100.97 88.15"/>
  <g>
    <rect class="cls-2" x="18.72" y="20.81" width="109.28" height="68.37" transform="translate(146.72 109.98) rotate(-180)"/>
    <rect class="cls-1" x="32.23" y="49.67" width="10.6" height="10.6" rx="3.32" ry="3.32" transform="translate(75.05 109.94) rotate(-180)"/>
    <circle class="cls-1" cx="73.36" cy="55.22" r="17.02"/>
    <rect class="cls-1" x="103.89" y="49.67" width="10.6" height="10.6" rx="3.32" ry="3.32" transform="translate(218.37 109.94) rotate(180)"/>
  </g>
</svg>