<?xml version="1.0" encoding="UTF-8"?>
<svg id="Layer_1" data-name="Layer 1" xmlns="http://www.w3.org/2000/svg" viewBox="0 0 128 128">
  <defs>
    <style>
      .cls-1 {
        fill: #fff;
      }

      .cls-1, .cls-2, .cls-3 {
        stroke-width: 0px;
      }

      .cls-2 {
        fill: #e3e5e9;
      }

      .cls-3 {
        fill: red;
      }
    </style>
  </defs>
  <g>
    <polygon class="cls-2" points="80.1 71.45 80.1 77.5 61.83 77.5 43.43 77.5 43.38 77.5 25.07 77.5 24.99 77.5 6.68 77.5 6.68 65.79 6.68 65.79 6.68 65.79 6.68 65.79 6.68 47.39 6.68 47.39 6.68 36.52 16.41 36.53 16.41 29.9 .05 29.89 .05 29.9 .05 29.9 .05 34.15 .05 36.52 .05 36.52 .05 47.39 0 47.39 0 65.79 .05 65.79 .05 65.79 0 65.79 0 84.18 6.68 84.18 6.68 84.18 24.99 84.18 25.07 84.18 43.38 84.18 43.38 84.13 43.43 84.13 43.43 84.18 61.83 84.18 61.83 84.13 80.1 84.13 80.1 84.13 86.74 84.13 86.74 71.45 80.1 71.45"/>
    <g>
      <rect class="cls-2" x="14.85" y="15.65" width="86.69" height="54.24" transform="translate(116.4 85.54) rotate(-180)"/>
      <rect class="cls-1" x="25.57" y="38.55" width="8.41" height="8.41" rx="3.32" ry="3.32" transform="translate(59.54 85.5) rotate(-180)"/>
      <circle class="cls-1" cx="58.2" cy="42.95" r="13.5"/>
      <rect class="cls-1" x="82.42" y="38.55" width="8.41" height="8.41" rx="3.32" ry="3.32" transform="translate(173.24 85.5) rotate(180)"/>
    </g>
  </g>
  <g>
    <circle class="cls-3" cx="91" cy="75.27" r="37"/>
    <g>
      <path class="cls-1" d="m75.37,94.37c-.84,0-1.69-.32-2.33-.97-1.29-1.29-1.29-3.38,0-4.66l31.6-31.61c1.29-1.29,3.38-1.29,4.66,0,1.29,1.29,1.29,3.38,0,4.66l-31.6,31.61c-.64.64-1.49.97-2.33.97Z"/>
      <path class="cls-1" d="m106.54,94.37c-.84,0-1.69-.32-2.33-.97l-31.6-31.61c-1.29-1.29-1.29-3.38,0-4.66,1.29-1.29,3.38-1.29,4.66,0l31.6,31.61c1.29,1.29,1.29,3.38,0,4.66-.64.64-1.49.97-2.33.97Z"/>
    </g>
  </g>
</svg>