<?xml version="1.0" encoding="UTF-8"?>
<svg id="Layer_1" data-name="Layer 1" xmlns="http://www.w3.org/2000/svg" viewBox="0 0 128 128">
  <defs>
    <style>
      .cls-1 {
        fill: #fff;
      }

      .cls-1, .cls-2, .cls-3 {
        stroke-width: 0px;
      }

      .cls-2 {
        fill: #e3e5e9;
      }

      .cls-3 {
        fill: #00ce0a;
      }
    </style>
  </defs>
  <g>
    <polygon class="cls-2" points="80.15 71.45 80.15 77.5 61.87 77.5 43.48 77.5 43.43 77.5 25.12 77.5 25.03 77.5 6.73 77.5 6.73 65.79 6.73 65.79 6.73 65.79 6.73 65.79 6.73 47.39 6.73 47.39 6.73 36.52 16.46 36.53 16.46 29.9 .1 29.89 .1 29.9 .09 29.9 .09 34.15 .09 36.52 .09 36.52 .09 47.39 .05 47.39 .05 65.79 .09 65.79 .09 65.79 .05 65.79 .05 84.18 6.73 84.18 6.73 84.18 25.03 84.18 25.12 84.18 43.43 84.18 43.43 84.13 43.48 84.13 43.48 84.18 61.87 84.18 61.87 84.13 80.15 84.13 80.15 84.13 86.78 84.13 86.78 71.45 80.15 71.45"/>
    <g>
      <rect class="cls-2" x="14.9" y="15.65" width="86.69" height="54.24" transform="translate(116.49 85.54) rotate(-180)"/>
      <rect class="cls-1" x="25.61" y="38.55" width="8.41" height="8.41" rx="3.32" ry="3.32" transform="translate(59.63 85.5) rotate(-180)"/>
      <circle class="cls-1" cx="58.25" cy="42.95" r="13.5"/>
      <rect class="cls-1" x="82.46" y="38.55" width="8.41" height="8.41" rx="3.32" ry="3.32" transform="translate(173.33 85.5) rotate(180)"/>
    </g>
  </g>
  <g>
    <circle class="cls-3" cx="91" cy="75.27" r="37"/>
    <path class="cls-1" d="m90.27,92.23l-17.57-12.03c-1.7-1.16-2.14-3.49-.97-5.19,1.16-1.7,3.49-2.14,5.19-.97l11.65,7.98,15.61-20.96c1.23-1.65,3.57-1.99,5.22-.76,1.65,1.23,1.99,3.57.76,5.22l-19.9,26.71Z"/>
  </g>
</svg>