<svg width="32" height="33" viewBox="0 0 32 33" fill="none" xmlns="http://www.w3.org/2000/svg">
<mask id="mask0_261_2023" style="mask-type:alpha" maskUnits="userSpaceOnUse" x="6" y="6" width="20" height="21">
<rect x="6" y="6.5" width="20" height="20" fill="#D9D9D9"/>
</mask>
<g mask="url(#mask0_261_2023)">
<path d="M16.0059 18.0402L12.11 21.936C11.9017 22.1444 11.6447 22.2485 11.3392 22.2485C11.0336 22.2485 10.7767 22.1444 10.5684 21.936C10.36 21.7277 10.2559 21.4708 10.2559 21.1652C10.2559 20.8596 10.36 20.6027 10.5684 20.3944L14.4642 16.4985L10.5684 12.6027C10.36 12.3944 10.2559 12.1374 10.2559 11.8319C10.2559 11.5263 10.36 11.2694 10.5684 11.061C10.7767 10.8527 11.0336 10.7485 11.3392 10.7485C11.6447 10.7485 11.9017 10.8527 12.11 11.061L16.0059 14.9569L19.9017 11.061C20.11 10.8527 20.367 10.7485 20.6725 10.7485C20.9781 10.7485 21.235 10.8527 21.4434 11.061C21.6517 11.2694 21.7559 11.5263 21.7559 11.8319C21.7559 12.1374 21.6517 12.3944 21.4434 12.6027L17.5475 16.4985L21.4434 20.3944C21.6517 20.6027 21.7559 20.8596 21.7559 21.1652C21.7559 21.4708 21.6517 21.7277 21.4434 21.936C21.235 22.1444 20.9781 22.2485 20.6725 22.2485C20.367 22.2485 20.11 22.1444 19.9017 21.936L16.0059 18.0402Z" fill="#C0C2C2"/>
</g>
</svg>
