<?xml version="1.0" encoding="UTF-8"?>
<svg viewBox="0 0 142 40" fill="currentColor" xmlns="http://www.w3.org/2000/svg">
  <g transform="translate(-92.076 -170.963)">
    <path d="M125.1,211.163a5.212,5.212,0,0,1-1.324-.171,4.916,4.916,0,0,1-3.008-2.225,4.492,4.492,0,0,1-.47-3.593,5.028,5.028,0,0,1,6.129-3.3h0a4.711,4.711,0,0,1,3.478,5.817A4.962,4.962,0,0,1,125.1,211.163Zm0-7.6a3.012,3.012,0,0,0-2.918,2.109,2.862,2.862,0,0,0,2.112,3.534,3.05,3.05,0,0,0,3.721-2.006,2.862,2.862,0,0,0-2.112-3.533h0A3.175,3.175,0,0,0,125.1,203.56Zm-5.522-4.347-4.391-7.22H106.4v-1.858h8.78l4.391-7.22,1.7.929-4.391,7.22,4.391,7.219Zm-22.519-3.418a5.214,5.214,0,0,1-1.324-.171A4.647,4.647,0,0,1,94.6,186.95a5.185,5.185,0,0,1,3.785-.446,4.92,4.92,0,0,1,3.008,2.225,4.489,4.489,0,0,1,.47,3.592A4.96,4.96,0,0,1,97.057,195.795Zm0-7.6a3.011,3.011,0,0,0-2.917,2.109,2.861,2.861,0,0,0,2.112,3.533,3.138,3.138,0,0,0,2.3-.271,2.881,2.881,0,0,0,1.423-1.734,2.727,2.727,0,0,0-.285-2.181,2.985,2.985,0,0,0-1.827-1.351A3.149,3.149,0,0,0,97.06,188.192Zm28.045-7.764a5.263,5.263,0,0,1-1.333-.172,4.92,4.92,0,0,1-3.008-2.225,4.49,4.49,0,0,1-.47-3.593,4.747,4.747,0,0,1,2.344-2.856,5.186,5.186,0,0,1,3.785-.446h0a4.647,4.647,0,0,1,1.134,8.674A5.16,5.16,0,0,1,125.105,180.428Zm-.007-7.6a3.012,3.012,0,0,0-2.918,2.109,2.725,2.725,0,0,0,.285,2.181,2.986,2.986,0,0,0,1.827,1.351,3.153,3.153,0,0,0,2.3-.271,2.881,2.881,0,0,0,1.424-1.734,2.727,2.727,0,0,0-.285-2.181,2.988,2.988,0,0,0-1.827-1.351A3.158,3.158,0,0,0,125.1,172.824Z"></path>
  </g>

  <g transform="translate(40 0)">
    <g transform="translate(-142.076 -170.963)">
      <path d="M411.331,244.059a6.734,6.734,0,0,1,3.943,1.24,1.1,1.1,0,0,1,.255.646v.034c0,.5-.314.814-.939.929a7.124,7.124,0,0,1-1.476-.6,3.911,3.911,0,0,0-1.436-.292h-.556a4.808,4.808,0,0,0-3.467,1.759,5.081,5.081,0,0,0-1.075,3.026v.136a4.857,4.857,0,0,0,2.346,4.145,4.946,4.946,0,0,0,2.439.684h.136a4.7,4.7,0,0,0,2.275-.584v-2.7h-2.241c-.593-.1-.892-.413-.892-.929v-.043c.1-.606.41-.91.92-.91h3.2q.737,0,.892.91v3.834c0,.674-.186,1.1-.556,1.273a6.939,6.939,0,0,1-3.539,1.066h-.2a6.758,6.758,0,0,1-5.633-3.116,7.061,7.061,0,0,1-1.072-3.7,6.788,6.788,0,0,1,3.039-5.668,6.977,6.977,0,0,1,3.633-1.147Z" transform="translate(-255.62 -60.057)"></path>
      <path d="M486.922,250.952l-1.1-2.887-1.065,2.887Zm-1.119-6.506q.844,0,1.193,1.457,4.129,10.776,4.176,11.086v.117c0,.492-.295.789-.892.892h-.062q-.819,0-1.121-1.357l-1.464-3.807H484.01l-1.839,4.854a1.251,1.251,0,0,1-.712.31h-.1c-.594-.108-.892-.416-.892-.919V257l1.184-3.2q3.047-7.945,3.322-8.864a1.2,1.2,0,0,1,.829-.481Z" transform="translate(-317.604 -60.372)"></path>
      <path d="M545.884,244.059H554.4q.867.163.867.892v.137c0,.5-.339.783-1.01.854h-3.17v10.853q0,.737-.91.892h-.043c-.5,0-.815-.314-.929-.939V245.942h-3.241c-.625-.121-.939-.447-.939-.982.134-.6.42-.9.858-.9Z" transform="translate(-370.379 -60.057)"></path>
      <path d="M618.539,243.478l.475.093h6.712l.136-.037q.867,0,1,1.044a.981.981,0,0,1-1.028.895h-6.053v4.1h3.859l.491-.037q.695,0,.9.942a1.074,1.074,0,0,1-.78,1l-.749-.037h-3.721v3.878H626c.478,0,.77.342.873,1.025-.174.584-.476.877-.9.877h-7.187c-.6-.108-.9-.42-.9-.929V244.482c.09-.606.311-.911.659-.911v-.093Z" transform="translate(-429.903 -59.584)"></path>
      <path d="M684.211,244.252h.165q.863.182.864.817v5.167h5.929v-5.093c.1-.593.4-.892.891-.892h.127q.863.163.864.892v11.844c0,.441-.3.727-.9.855h-.091c-.594-.108-.891-.42-.891-.929v-4.831h-5.929v4.865c0,.494-.3.792-.892.895h-.062c-.5,0-.814-.314-.929-.939V245.262c.072-.675.357-1.01.854-1.01Z" transform="translate(-483.469 -60.214)"></path>
      <path d="M754.875,244.25h.166c.574.121.863.394.863.82v7.336q0,2.213,1.227,2.942a2.753,2.753,0,0,0,1.738.609,2.976,2.976,0,0,0,2.774-1.892,4.038,4.038,0,0,0,.189-1.249v-7.675c.1-.593.4-.892.892-.892h.127c.574.109.864.407.864.892v8.02a4.715,4.715,0,0,1-2.073,3.8,4.776,4.776,0,0,1-2.675.882h-.237a4.854,4.854,0,0,1-3.945-2.222,5.361,5.361,0,0,1-.765-2.939V245.26c.071-.674.357-1.01.854-1.01Z" transform="translate(-541.895 -60.213)"></path>
      <path d="M824.679,244.059l.454.075h2.047l.136-.019a3.548,3.548,0,0,1,2.921,1.591,3.366,3.366,0,0,1,.609,1.939v.1a3.159,3.159,0,0,1-.774,2.156,3.845,3.845,0,0,1,2.078,3.638,4.192,4.192,0,0,1-2.6,3.856,4.66,4.66,0,0,1-1.51.292h-3.113c-.6-.108-.9-.42-.9-.929V245.044c.09-.606.311-.91.655-.91v-.075Zm1.228,1.957v3.3h.991a1.82,1.82,0,0,0,1.911-1.025,1.647,1.647,0,0,0,.117-.594v-.1a1.584,1.584,0,0,0-1.317-1.544l-.684-.037h-1.019Zm0,5.182v4.6h1.51a2.59,2.59,0,0,0,2.414-1,2.185,2.185,0,0,0,.4-1.271v-.066a2.2,2.2,0,0,0-1.8-2.208l-.919-.056Z" transform="translate(-598.402 -60.057)"></path>
    </g>
  </g>
</svg>
