<svg viewBox="0 0 260 64" fill="none" xmlns="http://www.w3.org/2000/svg">
<path d="M79.0388 46.9004V17.9004H82.2638V46.9004H79.0388Z" fill="currentColor"></path>
<path d="M91.1139 46.8998H87.9639V25.9498H91.0639V27.4248C93.3389 26.1748 95.4889 25.5498 97.5639 25.5498C100.364 25.5498 102.239 26.2998 103.189 27.8248C104.164 29.3248 104.639 32.0248 104.639 35.8748V46.9498H101.539V35.9748C101.539 33.0748 101.264 31.0748 100.689 29.9998C100.114 28.9248 98.8889 28.3748 97.0139 28.3748C96.1139 28.3748 95.1889 28.4998 94.1889 28.7748C93.1889 29.0498 92.4389 29.2998 91.9139 29.5498L91.1139 29.9248V46.8998Z" fill="currentColor"></path>
<path d="M120.364 28.6748H113.689V38.6998C113.689 41.0998 113.864 42.6748 114.214 43.4248C114.564 44.1748 115.389 44.5498 116.714 44.5498L120.439 44.2998L120.639 46.8998C118.764 47.1998 117.339 47.3498 116.364 47.3498C114.189 47.3498 112.664 46.8248 111.839 45.7498C110.989 44.6998 110.589 42.6748 110.589 39.6748V28.6498H107.614V25.9248H110.589V19.5498H113.689V25.9498H120.364V28.6748Z" fill="currentColor"></path>
<path d="M137.639 44.3004L138.864 44.1754L138.939 46.6504C135.764 47.1004 133.039 47.3254 130.764 47.3254C127.739 47.3254 125.614 46.4504 124.364 44.7004C123.114 42.9504 122.489 40.2254 122.489 36.5504C122.489 29.2004 125.414 25.5254 131.239 25.5254C134.064 25.5254 136.164 26.3254 137.564 27.9004C138.964 29.4754 139.664 31.9504 139.664 35.3504L139.489 37.7504H125.664C125.664 40.0754 126.089 41.8004 126.914 42.9004C127.764 44.0254 129.214 44.5754 131.289 44.5754C133.364 44.5754 135.489 44.4754 137.639 44.3004ZM136.514 35.2254C136.514 32.6504 136.089 30.8504 135.289 29.7754C134.464 28.7254 133.114 28.1754 131.264 28.1754C129.414 28.1754 128.014 28.7254 127.064 29.8504C126.139 30.9754 125.639 32.7504 125.614 35.2254H136.514Z" fill="currentColor"></path>
<path d="M143.714 46.9V25.95H146.814V28.8C149.239 27.125 151.789 26.025 154.489 25.5V28.675C153.314 28.9 152.089 29.25 150.814 29.725C149.539 30.2 148.564 30.625 147.889 30.975L146.839 31.525V46.9H143.714Z" fill="currentColor"></path>
<path d="M157.614 46.9002V16.8252H160.764V46.9252H157.614V46.9002Z" fill="currentColor"></path>
<path d="M180.464 44.3004L181.689 44.1754L181.764 46.6504C178.589 47.1004 175.864 47.3254 173.589 47.3254C170.564 47.3254 168.439 46.4504 167.189 44.7004C165.939 42.9504 165.314 40.2254 165.314 36.5504C165.314 29.2004 168.239 25.5254 174.064 25.5254C176.889 25.5254 178.989 26.3254 180.389 27.9004C181.789 29.4754 182.489 31.9504 182.489 35.3504L182.314 37.7504H168.489C168.489 40.0754 168.914 41.8004 169.739 42.9004C170.589 44.0254 172.039 44.5754 174.114 44.5754C176.189 44.5754 178.314 44.4754 180.464 44.3004ZM179.339 35.2254C179.339 32.6504 178.914 30.8504 178.114 29.7754C177.289 28.7254 175.939 28.1754 174.089 28.1754C172.239 28.1754 170.839 28.7254 169.889 29.8504C168.964 30.9754 168.464 32.7504 168.439 35.2254H179.339Z" fill="currentColor"></path>
<path d="M202.639 16.8252V46.9252H199.539V45.5002C197.389 46.7252 195.264 47.3502 193.164 47.3502C192.039 47.3502 191.064 47.2002 190.239 46.9252C189.389 46.6502 188.614 46.1502 187.889 45.4252C186.389 43.9252 185.614 41.1252 185.614 37.0752C185.614 33.0002 186.289 30.0752 187.639 28.2752C188.989 26.4752 191.239 25.5752 194.364 25.5752C195.989 25.5752 197.714 25.7502 199.514 26.1252V16.8752H202.639V16.8252ZM191.739 44.2252C192.239 44.4252 192.889 44.5252 193.689 44.5252C194.489 44.5252 195.389 44.4002 196.364 44.1252C197.364 43.8502 198.139 43.6002 198.689 43.3502L199.539 42.9752V28.7752C197.739 28.4502 196.089 28.2752 194.564 28.2752C192.439 28.2752 190.964 28.9502 190.114 30.3002C189.264 31.6502 188.864 33.7502 188.864 36.6002C188.864 39.8502 189.364 42.0252 190.339 43.1502C190.764 43.6752 191.239 44.0252 191.739 44.2252Z" fill="currentColor"></path>
<path d="M215.964 56.7504C212.614 56.7504 210.264 56.3004 208.939 55.4004C207.614 54.5004 206.939 52.8254 206.939 50.4254C206.939 49.2754 207.189 48.3504 207.689 47.6504C208.189 46.9504 209.039 46.1254 210.239 45.2504C209.464 44.7254 209.064 43.7504 209.064 42.3504C209.064 41.8754 209.414 41.0004 210.114 39.7004L210.489 39.0254C208.289 38.0254 207.189 35.9004 207.189 32.7004C207.189 27.9254 209.789 25.5254 215.014 25.5254C216.364 25.5254 217.589 25.6754 218.739 25.9504L219.364 26.0754L225.564 25.9004V28.6004L221.589 28.5254C222.514 29.4504 222.964 30.8504 222.964 32.7254C222.964 35.3504 222.314 37.2004 221.014 38.2254C219.714 39.2754 217.664 39.8004 214.864 39.8004C214.114 39.8004 213.414 39.7504 212.814 39.6254C212.314 40.8504 212.064 41.6504 212.064 42.0254C212.064 42.9004 212.339 43.4254 212.864 43.6504C213.389 43.8504 214.989 43.9754 217.689 43.9754C220.364 43.9754 222.289 44.4004 223.464 45.2254C224.639 46.0754 225.214 47.7004 225.214 50.1254C225.264 54.5504 222.164 56.7504 215.964 56.7504ZM210.039 50.1754C210.039 51.6504 210.439 52.6754 211.264 53.2504C212.089 53.8254 213.614 54.1004 215.839 54.1004C218.064 54.1004 219.664 53.8004 220.614 53.1754C221.589 52.5504 222.064 51.5254 222.064 50.1004C222.064 48.6504 221.714 47.7254 221.014 47.3254C220.314 46.9004 218.939 46.7004 216.914 46.7004L212.389 46.5004C211.464 47.1754 210.839 47.7504 210.514 48.2504C210.214 48.7504 210.039 49.4004 210.039 50.1754ZM210.339 32.7004C210.339 34.3504 210.714 35.5254 211.439 36.2254C212.189 36.9254 213.389 37.2754 215.114 37.2754C216.814 37.2754 218.039 36.9254 218.764 36.2254C219.489 35.5254 219.864 34.3504 219.864 32.6754C219.864 31.0254 219.489 29.8254 218.764 29.1254C218.039 28.4254 216.814 28.0754 215.114 28.0754C213.414 28.0754 212.189 28.4254 211.439 29.1504C210.714 29.8754 210.339 31.0504 210.339 32.7004Z" fill="currentColor"></path>
<path d="M242.814 44.3004L244.039 44.1754L244.114 46.6504C240.939 47.1004 238.214 47.3254 235.939 47.3254C232.914 47.3254 230.789 46.4504 229.539 44.7004C228.289 42.9504 227.664 40.2254 227.664 36.5504C227.664 29.2004 230.589 25.5254 236.414 25.5254C239.239 25.5254 241.339 26.3254 242.739 27.9004C244.139 29.4754 244.839 31.9504 244.839 35.3504L244.664 37.7504H230.839C230.839 40.0754 231.264 41.8004 232.089 42.9004C232.939 44.0254 234.389 44.5754 236.464 44.5754C238.564 44.5754 240.664 44.4754 242.814 44.3004ZM241.689 35.2254C241.689 32.6504 241.264 30.8504 240.464 29.7754C239.639 28.7254 238.289 28.1754 236.439 28.1754C234.589 28.1754 233.189 28.7254 232.239 29.8504C231.314 30.9754 230.814 32.7504 230.789 35.2254H241.689Z" fill="currentColor"></path>
<path d="M248.889 46.9V25.95H251.989V28.8C254.414 27.125 256.964 26.025 259.664 25.5V28.675C258.489 28.9 257.264 29.25 255.989 29.725C254.714 30.2 253.739 30.625 253.064 30.975L252.014 31.525V46.9H248.889Z" fill="currentColor"></path>
<path d="M53.764 39.6498C55.239 35.1248 54.664 30.0498 53.764 25.6748C51.889 21.6998 49.564 17.4748 45.714 14.7248C41.814 11.9248 36.889 10.9248 32.414 10.4248C28.014 10.9498 23.239 11.6998 19.389 14.4748C15.489 17.2748 13.039 21.7748 11.164 25.8248C10.314 30.1248 9.68895 35.1748 11.164 39.6498C12.664 44.1748 16.064 47.5998 19.389 50.5998C23.264 52.7248 27.664 54.7998 32.389 54.7998C37.214 54.7998 41.789 52.6998 45.714 50.4998C48.964 47.5248 52.289 44.1248 53.764 39.6498Z" fill="white"></path>
<path d="M32.4637 53.95C27.7137 53.95 23.2637 52.725 19.3887 50.6C19.5387 53.6 25.4137 57.175 32.5637 57.175C39.7137 57.175 45.2637 52.8 45.7137 50.5C41.7887 52.7 37.2887 53.95 32.4637 53.95Z" fill="#B4EEE0"></path>
<path d="M19.3889 50.5998C16.0889 47.5998 13.4889 43.7248 11.9889 39.1748C10.5139 34.6998 10.3139 30.1248 11.1639 25.7998C8.56392 26.4248 7.18892 35.1748 8.91392 40.2498C10.6639 45.3498 16.7889 51.6998 19.3889 50.5998Z" fill="#D3D6E2"></path>
<path d="M19.8387 15.3249C23.6887 12.5499 28.0137 10.9499 32.4137 10.4249C30.2637 8.54986 21.6137 9.92486 17.8387 12.7749C14.0887 15.6249 9.63873 23.1499 11.1637 25.8249C13.0137 21.7749 15.9387 18.1249 19.8387 15.3249Z" fill="#FFC9DD"></path>
<path d="M32.4138 10.4C36.8888 10.9 41.2638 12.525 45.1638 15.325C49.0138 18.1 51.8888 21.675 53.7638 25.65C55.3888 22.925 51.7638 15.775 46.9888 12.65C42.2138 9.52504 33.6388 8.72504 32.4138 10.4Z" fill="#FFEBB2"></path>
<path d="M53.7639 25.6748C54.6639 30.0498 54.4639 34.6748 52.9639 39.2248C51.4889 43.6998 48.9389 47.5248 45.7139 50.5248C49.4139 50.8748 54.5389 46.0248 56.0889 40.1248C57.6639 34.2248 56.0639 25.9748 53.7639 25.6748Z" fill="#C6E4A2"></path>
<path d="M8.91375 40.2749C7.33875 42.2499 9.33875 50.5249 16.0138 55.2249C22.6888 59.9249 31.1138 58.8999 32.5638 57.1749C27.6388 56.2499 23.0638 53.9499 19.3888 50.5999C14.9888 48.1999 11.3638 44.5999 8.91375 40.2749Z" fill="#A4BFDD"></path>
<path d="M56.089 40.125C53.664 44.475 50.064 48.075 45.714 50.525C42.039 53.9 37.489 56.225 32.564 57.2C34.339 59.325 43.914 58.25 49.114 55.15C54.289 52 57.114 42.825 56.089 40.125Z" fill="#99E2D1"></path>
<path d="M11.1638 25.8247C12.1138 20.9497 14.4388 16.4247 17.8388 12.7747C14.3388 11.4997 7.73884 17.2997 5.68884 24.0747C3.63884 30.8747 5.28884 38.6247 8.93884 40.2747C8.31384 35.3497 9.08884 30.3247 11.1638 25.8247Z" fill="#FFA7B3"></path>
<path d="M32.4139 10.4002C37.3889 9.8002 42.4389 10.5752 46.9889 12.6752C48.4889 9.8752 39.0139 4.7002 32.3889 4.7002C25.7639 4.7002 17.9389 9.22519 17.8389 12.7502C22.3639 10.6502 27.4389 9.8502 32.4139 10.4002Z" fill="#FFCCAA"></path>
<path d="M56.0888 40.1253C59.2388 39.5253 61.5888 31.7503 59.2138 23.9003C56.8388 16.0503 49.5388 11.8753 46.9888 12.6753C50.4138 16.3003 52.7638 20.8253 53.7638 25.6753C55.8638 30.1753 56.6888 35.2003 56.0888 40.1253Z" fill="#E9D59E"></path>
<path d="M16.0138 55.2252C15.2638 54.4252 14.5388 53.5752 13.8638 52.6502C11.0888 48.8752 9.4638 44.6002 8.9138 40.2752C6.7388 36.4252 5.4888 31.9752 5.4888 27.2252C5.4888 26.1502 5.5638 25.1002 5.6638 24.0752C3.1388 24.7752 0.0888047 34.8002 2.8638 42.2502C5.6388 49.6752 13.6638 55.6502 16.0138 55.2252Z" fill="#A499D7"></path>
<path d="M49.1138 55.125C48.1138 55.6 47.0638 56 45.9888 56.35C41.4888 57.8 36.9138 58 32.5888 57.175C28.2138 58.05 23.5638 57.825 19.0138 56.375C17.9888 56.05 16.9888 55.65 16.0388 55.225C17.2388 58.85 23.2638 63.5 32.6138 63.5C41.9388 63.5 47.3638 58.925 49.1138 55.125Z" fill="#56B8B6"></path>
<path d="M59.2389 23.8999C59.3889 24.9999 59.4389 26.0999 59.4389 27.2249C59.4389 31.8999 58.2389 36.2999 56.0889 40.1249C55.5639 44.5249 53.9389 48.8499 51.1139 52.6749C50.4889 53.5499 49.8139 54.3499 49.0889 55.1249C53.4139 55.3999 59.8139 50.6749 62.1389 42.0499C64.4889 33.4499 61.5889 24.9499 59.2389 23.8999Z" fill="#68C280"></path>
<path d="M5.68876 24.0751C6.21376 23.1001 6.83876 22.1751 7.48876 21.2501C10.2638 17.4751 13.8388 14.6251 17.8388 12.7751C20.8638 9.52512 24.7638 6.97512 29.3138 5.52512C30.3388 5.20012 31.3638 4.92512 32.4138 4.72512C28.7638 2.92512 19.8138 4.00012 14.0888 7.70012C8.36376 11.3751 4.63876 20.5751 5.68876 24.0751Z" fill="#FF7A7F"></path>
<path d="M32.3887 4.69992C33.4887 4.89992 34.5637 5.17492 35.6387 5.52492C40.1137 6.97492 43.9637 9.47492 46.9887 12.6499C51.0387 14.4999 54.6887 17.3749 57.4887 21.1999C58.1137 22.0749 58.6887 22.9499 59.2137 23.8749C60.8637 20.7499 55.8637 11.3749 50.7137 7.52492C45.5637 3.69992 36.2387 2.99992 32.3887 4.69992Z" fill="#FFBA86"></path>
<path d="M5.68881 24.0748C6.43881 17.6248 9.53881 11.8748 14.0888 7.6748C8.38881 10.8498 3.83881 16.0748 1.66381 22.6998C-0.536186 29.3998 0.0888143 36.3248 2.86381 42.2498C1.63881 36.1998 2.51381 29.7498 5.68881 24.0748Z" fill="#835283"></path>
<path d="M16.0138 55.225C10.0638 52.5 5.48877 47.825 2.86377 42.25C4.16377 48.6 7.76377 54.475 13.4388 58.6C19.1888 62.75 26.0388 64.3 32.5638 63.5C26.4138 62.775 20.4888 59.975 16.0138 55.225Z" fill="#8075B4"></path>
<path d="M49.1139 55.1248C44.6639 59.8998 38.7639 62.7498 32.5889 63.4998C39.0639 64.2498 45.8389 62.6748 51.5389 58.5748C57.2889 54.4248 60.9139 48.4748 62.1639 42.0498C59.5639 47.6498 55.0389 52.3748 49.1139 55.1248Z" fill="#2E9D87"></path>
<path d="M59.2389 23.8998C62.4389 29.5498 63.3639 35.9998 62.1639 42.0498C64.8889 36.1748 65.4639 29.2998 63.2889 22.6748C61.0889 15.9748 56.4889 10.7248 50.7139 7.5498C55.3139 11.7248 58.4139 17.4498 59.2389 23.8998Z" fill="#549558"></path>
<path d="M32.389 4.7C38.814 3.425 45.289 4.55 50.714 7.55C45.914 3.175 39.489 0.5 32.464 0.5C25.364 0.5 18.889 3.225 14.064 7.675C19.489 4.65 25.964 3.475 32.389 4.7Z" fill="#FF9952"></path>
</svg>
